:version 1.10
:name ASF
:units
  mass 1
  length 1
  angle deg
:documentation
  ASF file generated by Kaydara
:root
  axis xyz
  order  tx ty tz rx ry rz
  position 0 0 0
  orientation 0 0 0
:bonedata
  begin
    id 1
    name RightUpLegDummy
    direction -1 2.30186e-007 8.31532e-007
    length 4.04083
    axis 0 0 0 xyz
  end
  begin
    id 2
    name RightUpLeg
    direction -0.000919234 -0.999985 0.00544864
    length 17.4221
    axis -3.80308 -0.00076134 -0.0523649 xyz
    dof rx ry rz
  end
  begin
    id 3
    name RightLeg
    direction -0.000919271 -0.999984 -0.00555045
    length 17.1239
    axis 4.00314 0.0181274 -0.183583 xyz
    dof rx ry rz
  end
  begin
    id 4
    name RightFoot
    direction -2.57843e-005 -4.04509e-007 1
    length 6.72091
    axis 8.18909e-005 -0.122003 -0.403008 xyz
    dof rx ry rz
  end
  begin
    id 5
    name RightToes
    direction 0.00116825 -0.014069 0.9999
    length 3.85082
    axis 0.000514414 0.540638 -0.356797 xyz
    dof rx ry rz
  end
  begin
    id 6
    name SpineDummy
    direction 0.0168869 0.966876 -0.254689
    length 6.99894
    axis 0 0 0 xyz
  end
  begin
    id 7
    name Spine
    direction -0.0132008 0.999903 0.00446247
    length 11.1999
    axis -0.00148109 0.00725429 0.756411 xyz
    dof rx ry rz
  end
  begin
    id 8
    name Spine1
    direction 0 0 0
    length 0
    axis -0.000934958 0.0245693 1.46543 xyz
    dof rx ry rz
  end
  begin
    id 9
    name HEadDummy
    direction -0.0255732 0.999672 0.00128215
    length 3.43865
    axis -0.000934958 0.0245693 1.46543 xyz
  end
  begin
    id 10
    name HEad
    direction -0.0472656 0.980052 0.19304
    length 5.12695
    axis -0.000934954 0.0245693 1.46543 xyz
    dof rx ry rz
  end
  begin
    id 11
    name LeftShoulder1Dummy
    direction 0.953098 0.301717 -0.023914
    length 3.68488
    axis -0.000934958 0.0245693 1.46543 xyz
  end
  begin
    id 12
    name LeftShoulder1
    direction 0.962466 0.271167 0.0112566
    length 3.13809
    axis -0.000934958 0.0245693 1.46543 xyz
    dof rx ry rz
  end
  begin
    id 13
    name LeftArm
    direction 0.999943 0.00455037 -0.00961766
    length 11.3419
    axis -23.1648 0.685459 1.22814 xyz
    dof rx ry rz
  end
  begin
    id 14
    name LeftForeArm
    direction 0.999332 0.0131969 0.0340885
    length 8.70632
    axis -9.90633 0.618216 0.0826942 xyz
    dof rx ry rz
  end
  begin
    id 15
    name LeftHand
    direction 0.994373 -0.0366703 0.0993905
    length 5.32135
    axis 0.00675269 0.680415 0.445699 xyz
    dof rx ry rz
  end
  begin
    id 16
    name RightShoulderDummy
    direction -0.967298 0.252589 -0.0230903
    length 3.68488
    axis -0.000934958 0.0245693 1.46543 xyz
  end
  begin
    id 17
    name RightShoulder
    direction -0.975062 0.221602 0.0120823
    length 3.13809
    axis 0.216257 0.0246515 1.45863 xyz
    dof rx ry rz
  end
  begin
    id 18
    name RightArm
    direction -0.99886 -0.00851186 -0.0469687
    length 10.3947
    axis -23.196 0.23503 -0.532632 xyz
    dof rx ry rz
  end
  begin
    id 19
    name RightForeArm
    direction -0.99909 0.00114866 0.0426317
    length 8.68355
    axis -9.91764 -0.134943 0.610517 xyz
    dof rx ry rz
  end
  begin
    id 20
    name RightHand
    direction -0.992888 -0.0489538 0.10852
    length 5.28593
    axis -0.00275396 -0.197403 0.246414 xyz
    dof rx ry rz
  end
  begin
    id 21
    name LeftUpLegDummy
    direction 1 -2.30186e-007 -8.31532e-007
    length 4.04083
    axis 0 0 0 xyz
  end
  begin
    id 22
    name LeftUpLeg
    direction -0.000920097 -1 2.79241e-006
    length 17.4221
    axis -3.48782 0.00143434 -0.0532288 xyz
    dof rx ry rz
  end
  begin
    id 23
    name LeftLeg
    direction -0.000920097 -1 2.7912e-006
    length 17.1239
    axis 3.68162 -0.00806512 -0.0529896 xyz
    dof rx ry rz
  end
  begin
    id 24
    name LeftFoot
    direction -2.57845e-005 -3.987e-007 1
    length 6.72091
    axis 3.02372e-005 -0.00147829 -0.214229 xyz
    dof rx ry rz
  end
  begin
    id 25
    name LeftToes
    direction 0.00813577 -0.00488255 0.999955
    length 3.85048
    axis 3.89895e-005 -0.0014783 -0.214229 xyz
    dof rx ry rz
  end
:hierarchy
  begin
    root RightUpLegDummy SpineDummy LeftUpLegDummy
    RightUpLegDummy RightUpLeg
    RightUpLeg RightLeg
    RightLeg RightFoot
    RightFoot RightToes
    SpineDummy Spine
    Spine Spine1
    Spine1 HEadDummy LeftShoulder1Dummy RightShoulderDummy
    HEadDummy HEad
    LeftShoulder1Dummy LeftShoulder1
    LeftShoulder1 LeftArm
    LeftArm LeftForeArm
    LeftForeArm LeftHand
    RightShoulderDummy RightShoulder
    RightShoulder RightArm
    RightArm RightForeArm
    RightForeArm RightHand
    LeftUpLegDummy LeftUpLeg
    LeftUpLeg LeftLeg
    LeftLeg LeftFoot
    LeftFoot LeftToes
  end

:SAMPLES-PER-SECOND 30
:FULLY-SPECIFIED
:DEGREES
89
root  -44.0122 34.8082 4.7249 -170.131 79.8891 178.05
RightUpLeg  -10.2839 -19.6788 0.111096
RightLeg  8.82361 -5.0944 -0.455876
RightFoot  1.50364 0.00688503 0.0507909
RightToes  -25.4268 -0.113731 -0.218959
Spine  -1.20566 -0.286168 -0.628026
Spine1  -2.49534 -0.463295 -0.613483
HEad  -74.6993 4.4151 6.34422
LeftShoulder1  -1.94126e-019 -3.10601e-018 -2.51263e-017
LeftArm  -13.2693 21.6614 -79.6738
LeftForeArm  35.3577 -12.1897 -2.02964
LeftHand  -0.453735 -1.67387 7.63255
RightShoulder  -4.96962e-017 0 -2.36833e-017
RightArm  -29.8822 -20.6022 76.8367
RightForeArm  53.0199 17.1508 1.16204
RightHand  -0.375463 -0.874895 -9.60981
LeftUpLeg  -12.4453 12.3508 0.715723
LeftLeg  4.19445 14.0183 0.123604
LeftFoot  9.25166 -0.184807 2.44531
LeftToes  -24.0095 1.49739e-006 1.00523e-007
90
root  -43.9795 34.795 5.05068 -170.406 79.0891 177.949
RightUpLeg  -9.96118 -19.554 0.599087
RightLeg  8.71862 -6.02665 -0.527983
RightFoot  0.961339 0.00494299 0.0823497
RightToes  -24.1663 -0.105881 -0.209447
Spine  -1.05307 -0.187885 -0.458369
Spine1  -2.18764 -0.26249 -0.30813
HEad  -74.3932 4.59293 6.59819
LeftShoulder1  -1.94126e-019 -3.10601e-018 -2.51263e-017
LeftArm  -12.5144 21.6518 -80.1662
LeftForeArm  34.7504 -13.4989 -2.19021
LeftHand  -0.445343 -1.71459 7.45465
RightShoulder  -4.96962e-017 0 -2.36833e-017
RightArm  -29.2912 -21.0537 76.4683
RightForeArm  53.3339 16.5936 1.10554
RightHand  -0.376649 -0.774837 -9.44157
LeftUpLeg  -12.605 11.5676 1.32202
LeftLeg  4.55633 14.0386 0.211529
LeftFoot  9.59252 -0.19843 2.52611
LeftToes  -24.4757 1.49739e-006 1.00523e-007
91
root  -43.9225 34.767 5.37377 -170.309 78.1342 178.282
RightUpLeg  -9.55727 -20.0148 1.17933
RightLeg  8.6304 -6.48431 -0.557891
RightFoot  0.401835 0.00197355 0.134366
RightToes  -22.9924 -0.0987608 -0.200436
Spine  -0.943456 -0.121173 -0.198001
Spine1  -1.96586 -0.126546 0.174933
HEad  -73.3115 4.66401 6.64687
LeftShoulder1  -1.94126e-019 -3.10601e-018 -2.51263e-017
LeftArm  -12.2312 21.9005 -80.6721
LeftForeArm  34.1823 -15.5839 -2.46327
LeftHand  -0.444649 -1.85784 7.30696
RightShoulder  -4.96962e-017 0 -2.36833e-017
RightArm  -29.2419 -21.3737 75.9321
RightForeArm  54.7015 15.6206 1.09293
RightHand  -0.381883 -0.660097 -9.353
LeftUpLeg  -13.5296 10.5465 2.06916
LeftLeg  6.6332 14.0883 0.718104
LeftFoot  9.18386 -0.182051 2.42794
LeftToes  -25.4206 1.49739e-006 1.00523e-007
92
root  -43.8497 34.7276 5.67594 -170.26 77.0617 178.535
RightUpLeg  -9.21113 -20.9565 1.72911
RightLeg  8.63962 -6.55118 -0.564681
RightFoot  -0.169795 -0.00105012 0.193731
RightToes  -22.3287 -0.0948173 -0.195277
Spine  -0.901804 -0.0865478 0.0910542
Spine1  -1.87821 -0.0637149 0.724489
HEad  -71.7076 4.59456 6.71628
LeftShoulder1  -1.94126e-019 -3.10601e-018 -2.51263e-017
LeftArm  -12.1098 22.2841 -81.1939
LeftForeArm  33.7856 -17.8106 -2.75845
LeftHand  -0.446614 -1.96587 7.23872
RightShoulder  -4.96962e-017 0 -2.36833e-017
RightArm  -30.7117 -21.6987 75.386
RightForeArm  56.5476 14.3792 1.19879
RightHand  -0.385896 -0.735233 -9.59669
LeftUpLeg  -14.6603 9.04216 2.82449
LeftLeg  9.102 14.3805 1.34869
LeftFoot  8.54566 -0.160762 2.31303
LeftToes  -25.7446 1.49739e-006 1.00523e-007
93
root  -43.7834 34.6802 5.97857 -169.583 75.8467 179.333
RightUpLeg  -8.93359 -21.3618 2.45924
RightLeg  8.56688 -7.25823 -0.616066
RightFoot  -0.669472 -0.0023608 0.256635
RightToes  -21.5778 -0.0904276 -0.189385
Spine  -0.897803 -0.087995 0.467159
Spine1  -1.86346 -0.0781855 1.45662
HEad  -70.0457 4.40537 6.78532
LeftShoulder1  -1.94126e-019 -3.10601e-018 -2.51263e-017
LeftArm  -11.4879 22.7803 -81.7233
LeftForeArm  32.66 -20.343 -3.09347
LeftHand  -0.432346 -1.7323 7.22541
RightShoulder  -4.96962e-017 0 -2.36833e-017
RightArm  -32.903 -22.0568 74.7343
RightForeArm  57.8578 13.2225 1.34315
RightHand  -0.379255 -0.927791 -9.81729
LeftUpLeg  -16.2147 7.20509 3.73723
LeftLeg  12.1342 14.866 2.18167
LeftFoot  7.70908 -0.135525 2.17283
LeftToes  -26.0862 1.49739e-006 1.00523e-007
94
root  -43.7377 34.6214 6.25997 -168.782 74.3809 -179.81
RightUpLeg  -8.8255 -22.2579 3.27426
RightLeg  8.59862 -7.72114 -0.659417
RightFoot  -1.25255 -0.00374306 0.337343
RightToes  -20.9371 -0.0867438 -0.184313
Spine  -0.910994 -0.129008 0.87258
Spine1  -1.8828 -0.172364 2.25085
HEad  -68.7411 4.0251 6.97368
LeftShoulder1  -1.94126e-019 -3.10601e-018 -2.51263e-017
LeftArm  -10.7758 23.1554 -82.1975
LeftForeArm  32.1 -22.6933 -3.42761
LeftHand  -0.422639 -1.80936 6.9972
RightShoulder  -4.96962e-017 0 -2.36833e-017
RightArm  -34.9159 -22.4591 74.0533
RightForeArm  58.5062 12.3174 1.44499
RightHand  -0.359896 -1.22211 -9.93689
LeftUpLeg  -18.3084 4.62541 4.70879
LeftLeg  15.9826 15.7598 3.38707
LeftFoot  6.5313 -0.103894 1.98226
LeftToes  -25.3163 1.49739e-006 1.00523e-007
95
root  -43.7006 34.5486 6.50014 -167.654 72.5525 -178.576
RightUpLeg  -8.63672 -23.8817 4.20453
RightLeg  8.50019 -7.76931 -0.6501
RightFoot  -1.72185 -0.00323554 0.396586
RightToes  -20.6915 -0.0846688 -0.182359
Spine  -0.854889 -0.178621 1.41374
Spine1  -1.76449 -0.286112 3.32163
HEad  -68.5322 3.37693 6.95799
LeftShoulder1  -1.94126e-019 -3.10601e-018 -2.51263e-017
LeftArm  -9.80797 23.1951 -82.8618
LeftForeArm  31.9906 -24.7897 -3.74547
LeftHand  -0.418874 -2.03961 6.73851
RightShoulder  -4.96962e-017 0 -2.36833e-017
RightArm  -36.1145 -22.932 73.0908
RightForeArm  58.5284 11.9026 1.48247
RightHand  -0.348153 -1.33685 -9.86749
LeftUpLeg  -20.7481 0.829886 5.92469
LeftLeg  20.505 17.4198 5.16933
LeftFoot  5.31219 -0.0772743 1.82718
LeftToes  -24.2403 1.49739e-006 1.00523e-007
